<svg xmlns="http://www.w3.org/2000/svg" width="960" height="540" viewBox="0 0 960 540">
<rect width="100%" height="100%" fill="white"/>
<text x="480.0" y="36" text-anchor="middle" font-size="26" font-family="Arial">Aspect Distribution</text>
<line x1="120" y1="450" x2="920" y2="450" stroke="black" stroke-width="2"/>
<line x1="120" y1="70" x2="120" y2="450" stroke="black" stroke-width="2"/>
<line x1="114" y1="450.0" x2="120" y2="450.0" stroke="black" stroke-width="1"/>
<text x="108" y="455.0" text-anchor="end" font-size="14" font-family="Arial">0</text>
<line x1="120" y1="450.0" x2="920" y2="450.0" stroke="#dddddd" stroke-width="1"/>
<line x1="114" y1="374.0" x2="120" y2="374.0" stroke="black" stroke-width="1"/>
<text x="108" y="379.0" text-anchor="end" font-size="14" font-family="Arial">56</text>
<line x1="120" y1="374.0" x2="920" y2="374.0" stroke="#dddddd" stroke-width="1"/>
<line x1="114" y1="298.0" x2="120" y2="298.0" stroke="black" stroke-width="1"/>
<text x="108" y="303.0" text-anchor="end" font-size="14" font-family="Arial">111</text>
<line x1="120" y1="298.0" x2="920" y2="298.0" stroke="#dddddd" stroke-width="1"/>
<line x1="114" y1="222.0" x2="120" y2="222.0" stroke="black" stroke-width="1"/>
<text x="108" y="227.0" text-anchor="end" font-size="14" font-family="Arial">167</text>
<line x1="120" y1="222.0" x2="920" y2="222.0" stroke="#dddddd" stroke-width="1"/>
<line x1="114" y1="146.0" x2="120" y2="146.0" stroke="black" stroke-width="1"/>
<text x="108" y="151.0" text-anchor="end" font-size="14" font-family="Arial">222</text>
<line x1="120" y1="146.0" x2="920" y2="146.0" stroke="#dddddd" stroke-width="1"/>
<line x1="114" y1="70.0" x2="120" y2="70.0" stroke="black" stroke-width="1"/>
<text x="108" y="75.0" text-anchor="end" font-size="14" font-family="Arial">278</text>
<rect x="130.2" y="70.0" width="52.4" height="380.0" fill="#8c5a3c"/>
<text x="156.4" y="62.0" text-anchor="middle" font-size="14" font-family="Arial">278</text>
<g transform="translate(156.4,472) rotate(35)"><text text-anchor="start" font-size="13" font-family="Arial">overall</text></g>
<rect x="202.9" y="137.0" width="52.4" height="313.0" fill="#8c5a3c"/>
<text x="229.1" y="129.0" text-anchor="middle" font-size="14" font-family="Arial">229</text>
<g transform="translate(229.1,472) rotate(35)"><text text-anchor="start" font-size="13" font-family="Arial">usability</text></g>
<rect x="275.6" y="363.9" width="52.4" height="86.1" fill="#8c5a3c"/>
<text x="301.8" y="355.9" text-anchor="middle" font-size="14" font-family="Arial">63</text>
<g transform="translate(301.8,472) rotate(35)"><text text-anchor="start" font-size="13" font-family="Arial">performance</text></g>
<rect x="348.4" y="376.2" width="52.4" height="73.8" fill="#8c5a3c"/>
<text x="374.5" y="368.2" text-anchor="middle" font-size="14" font-family="Arial">54</text>
<g transform="translate(374.5,472) rotate(35)"><text text-anchor="start" font-size="13" font-family="Arial">screen</text></g>
<rect x="421.1" y="378.9" width="52.4" height="71.1" fill="#8c5a3c"/>
<text x="447.3" y="370.9" text-anchor="middle" font-size="14" font-family="Arial">52</text>
<g transform="translate(447.3,472) rotate(35)"><text text-anchor="start" font-size="13" font-family="Arial">price</text></g>
<rect x="493.8" y="395.3" width="52.4" height="54.7" fill="#8c5a3c"/>
<text x="520.0" y="387.3" text-anchor="middle" font-size="14" font-family="Arial">40</text>
<g transform="translate(520.0,472) rotate(35)"><text text-anchor="start" font-size="13" font-family="Arial">sound</text></g>
<rect x="566.5" y="407.6" width="52.4" height="42.4" fill="#8c5a3c"/>
<text x="592.7" y="399.6" text-anchor="middle" font-size="14" font-family="Arial">31</text>
<g transform="translate(592.7,472) rotate(35)"><text text-anchor="start" font-size="13" font-family="Arial">battery</text></g>
<rect x="639.3" y="418.6" width="52.4" height="31.4" fill="#8c5a3c"/>
<text x="665.5" y="410.6" text-anchor="middle" font-size="14" font-family="Arial">23</text>
<g transform="translate(665.5,472) rotate(35)"><text text-anchor="start" font-size="13" font-family="Arial">connectivity</text></g>
<rect x="712.0" y="424.0" width="52.4" height="26.0" fill="#8c5a3c"/>
<text x="738.2" y="416.0" text-anchor="middle" font-size="14" font-family="Arial">19</text>
<g transform="translate(738.2,472) rotate(35)"><text text-anchor="start" font-size="13" font-family="Arial">design</text></g>
<rect x="784.7" y="426.8" width="52.4" height="23.2" fill="#8c5a3c"/>
<text x="810.9" y="418.8" text-anchor="middle" font-size="14" font-family="Arial">17</text>
<g transform="translate(810.9,472) rotate(35)"><text text-anchor="start" font-size="13" font-family="Arial">build_quality</text></g>
<rect x="857.5" y="439.1" width="52.4" height="10.9" fill="#8c5a3c"/>
<text x="883.6" y="431.1" text-anchor="middle" font-size="14" font-family="Arial">8</text>
<g transform="translate(883.6,472) rotate(35)"><text text-anchor="start" font-size="13" font-family="Arial">camera</text></g>
</svg>